# xmcd
#
# Track frame offsets: 
#        150
#        14023
#        27829
#        40192
#        52178
#        63270
#        74837
#        84212
#        99339
#        113977
#        130334
#        145861
#
# Disc length: 2115 seconds
#
# Revision: 0
# Processed by: cddbd v1.5.2PL0 Copyright (c) Steve Scherf et al.
# Submitted via: ExactAudioCopy v0.90b4
#
DISCID=a908410c
DTITLE=Hambone Wilson - Sumthin' Cookin'
DYEAR=2011
DGENRE=Left Coast Blues
TTITLE0=Lonesome Whistle
TTITLE1=Rockin' Into The Night
TTITLE2=Blues All My Life
TTITLE3=Ole Time Used To Be
TTITLE4=Dancin' Till Dawn
TTITLE5=Walkin' Shoes
TTITLE6=Run Away Love
TTITLE7=Nooksack River Valley
TTITLE8=Lovin' Touch
TTITLE9=Sumthin' Cookin'
TTITLE10=Moonshine Maddness
TTITLE11=Razor Blade
EXTD=
EXTT0=
EXTT1=
EXTT2=
EXTT3=
EXTT4=
EXTT5=
EXTT6=
EXTT7=
EXTT8=
EXTT9=
EXTT10=
EXTT11=
PLAYORDER=
